<?xml version="1.0" encoding="UTF-8" ?>
<!DOCTYPE svg PUBLIC "-//W3C//DTD SVG 1.1//EN" "http://www.w3.org/Graphics/SVG/1.1/DTD/svg11.dtd">
<svg width="10pt" height="18pt" viewBox="0 0 10 18" version="1.1" xmlns="http://www.w3.org/2000/svg">
<g id="#709dcaff">
<path fill="#709dca" opacity="1.00" d=" M 4.33 1.02 C 5.71 -0.21 7.63 0.33 9.28 0.26 C 9.28 0.99 9.26 2.45 9.25 3.19 C 8.52 3.25 7.06 3.39 6.33 3.46 C 6.31 4.43 6.29 5.40 6.27 6.37 C 6.98 6.39 8.39 6.42 9.09 6.43 C 8.99 7.47 8.88 8.52 8.77 9.56 C 8.14 9.58 6.89 9.63 6.27 9.65 C 6.28 12.23 6.26 14.81 6.24 17.39 C 5.43 17.38 3.82 17.35 3.01 17.33 C 3.00 14.76 3.00 12.20 3.00 9.63 C 2.39 9.61 1.15 9.57 0.53 9.55 C 0.53 8.78 0.53 7.23 0.53 6.45 C 1.13 6.43 2.33 6.40 2.93 6.38 C 3.07 4.54 2.76 2.36 4.33 1.02 Z" />
</g>
</svg>
