<?xml version="1.0" encoding="UTF-8" ?>
<!DOCTYPE svg PUBLIC "-//W3C//DTD SVG 1.1//EN" "http://www.w3.org/Graphics/SVG/1.1/DTD/svg11.dtd">
<svg width="17pt" height="18pt" viewBox="0 0 17 18" version="1.1" xmlns="http://www.w3.org/2000/svg">
<g id="#5e83a9d6">
<path fill="#5e83a9" opacity="0.84" d=" M 5.75 0.00 L 11.78 0.00 C 11.25 0.32 10.19 0.97 9.66 1.29 C 10.61 3.98 9.62 6.43 8.06 8.61 C 9.07 9.73 10.14 10.82 10.99 12.07 C 11.93 15.90 7.30 18.20 4.09 17.34 C 1.73 17.34 -0.04 14.47 1.28 12.45 C 2.39 11.16 4.16 10.75 5.62 9.99 C 5.71 9.72 5.87 9.18 5.96 8.91 C 4.50 7.85 1.99 7.17 1.98 4.98 C 1.50 2.50 3.98 1.09 5.75 0.00 M 7.99 7.13 C 8.05 4.92 7.99 2.46 6.01 1.02 C 2.49 2.22 4.35 8.31 7.99 7.13 M 3.02 13.92 C 3.42 16.54 6.79 16.31 8.74 15.74 C 10.16 13.82 8.28 12.12 7.02 10.81 C 5.61 11.58 2.65 11.67 3.02 13.92 Z" />
<path fill="#5e83a9" opacity="0.84" d=" M 13.35 5.34 L 13.90 5.23 C 14.94 5.92 15.90 6.72 17.00 7.31 L 17.00 8.72 C 15.73 9.28 14.74 10.46 13.34 10.70 C 12.69 9.79 11.61 9.11 11.30 7.99 C 11.59 6.88 12.71 6.25 13.35 5.34 Z" />
</g>
</svg>
