<?xml version="1.0" encoding="UTF-8" ?>
<!DOCTYPE svg PUBLIC "-//W3C//DTD SVG 1.1//EN" "http://www.w3.org/Graphics/SVG/1.1/DTD/svg11.dtd">
<svg width="47pt" height="48pt" viewBox="0 0 47 48" version="1.1" xmlns="http://www.w3.org/2000/svg">
<g id="#6f9cc8fd">
<path fill="#6f9cc8" opacity="1.00" d=" M 18.26 1.39 C 20.97 0.30 24.04 0.64 26.89 0.86 C 30.10 1.52 29.61 5.23 30.18 7.65 C 31.99 6.49 33.64 4.61 35.91 4.49 C 38.55 5.83 40.55 8.21 42.36 10.49 C 43.76 13.17 41.13 15.28 39.73 17.25 C 41.86 17.84 44.32 17.79 46.12 19.20 C 47.09 22.26 46.99 25.66 46.36 28.79 C 44.92 30.88 42.00 30.34 39.86 30.95 C 41.08 32.80 43.04 34.52 42.97 36.91 C 41.36 39.89 38.61 42.02 35.93 44.00 C 33.72 43.38 31.84 42.06 30.19 40.50 C 29.64 42.85 30.19 46.78 27.03 47.35 C 24.16 47.52 21.03 47.97 18.33 46.76 C 16.98 45.02 17.15 42.63 16.68 40.58 C 15.10 41.76 13.48 42.88 11.86 44.01 C 8.45 42.81 5.84 39.92 4.02 36.90 C 3.99 34.48 5.91 32.73 7.14 30.83 C 4.61 30.42 1.67 30.47 0.00 28.20 L 0.00 21.24 C 0.14 17.54 4.50 17.90 7.13 17.30 C 5.79 15.46 3.49 13.66 3.96 11.14 C 5.63 8.72 7.73 6.52 10.19 4.89 C 12.65 3.64 14.65 6.41 16.53 7.61 C 17.01 5.53 17.06 3.23 18.26 1.39 M 18.56 8.58 C 17.91 8.88 16.62 9.46 15.97 9.76 C 14.54 8.61 13.09 7.47 11.67 6.31 C 9.25 7.73 7.45 9.91 5.61 11.98 C 6.65 13.52 7.79 15.00 9.02 16.39 C 8.71 17.31 8.39 18.22 8.06 19.14 C 6.10 19.47 4.14 19.83 2.17 20.14 C 1.91 22.76 1.96 25.39 2.12 28.01 C 4.04 28.35 5.96 28.66 7.88 28.93 C 8.28 29.88 8.69 30.84 9.08 31.80 C 8.12 33.39 5.96 34.76 6.09 36.74 C 7.53 38.68 9.43 40.22 11.09 41.96 C 12.87 40.99 14.52 39.80 16.13 38.56 C 16.73 38.82 17.92 39.33 18.52 39.59 C 18.81 41.56 19.21 43.51 19.57 45.47 C 22.09 45.46 24.61 45.45 27.13 45.50 C 27.82 43.56 28.15 41.52 28.41 39.49 C 29.03 39.26 30.27 38.81 30.89 38.59 C 32.46 39.57 33.75 41.39 35.59 41.76 C 37.74 40.48 39.49 38.57 40.93 36.53 C 40.77 34.66 38.79 33.32 37.86 31.69 C 38.11 31.04 38.59 29.73 38.84 29.08 C 40.83 28.80 42.86 28.58 44.77 27.90 C 44.72 25.40 44.72 22.90 44.74 20.39 C 42.82 19.88 40.86 19.58 38.89 19.36 C 38.54 18.35 38.18 17.35 37.82 16.35 C 38.80 14.93 40.50 13.78 40.81 12.03 C 39.60 9.66 37.32 7.96 35.29 6.28 C 33.81 7.47 32.29 8.62 30.76 9.74 C 29.94 9.37 29.11 9.00 28.29 8.64 C 27.79 6.73 28.18 4.37 26.91 2.80 C 24.52 2.64 22.13 2.79 19.74 2.68 C 19.04 4.58 18.69 6.57 18.56 8.58 Z" />
<path fill="#6f9cc8" opacity="1.00" d=" M 22.10 17.14 C 27.35 15.87 32.44 21.96 30.00 26.87 C 28.21 31.91 20.63 32.84 17.71 28.36 C 14.49 24.47 17.17 17.87 22.10 17.14 M 21.30 19.44 C 18.08 20.80 17.16 25.81 20.06 27.96 C 22.80 30.80 28.19 28.82 28.50 24.91 C 29.34 21.03 24.78 17.72 21.30 19.44 Z" />
</g>
</svg>
