<?xml version="1.0" encoding="UTF-8" ?>
<!DOCTYPE svg PUBLIC "-//W3C//DTD SVG 1.1//EN" "http://www.w3.org/Graphics/SVG/1.1/DTD/svg11.dtd">
<svg width="47pt" height="47pt" viewBox="0 0 47 47" version="1.1" xmlns="http://www.w3.org/2000/svg">
<g id="#5f85acd9">
<path fill="#5f85ac" opacity="0.85" d=" M 0.00 22.15 C 0.38 11.93 8.02 2.51 18.07 0.39 C 19.45 0.00 21.59 0.38 21.63 2.18 C 22.23 12.93 23.17 25.56 14.77 33.81 C 12.36 35.85 9.36 39.86 5.86 38.33 C 2.07 34.96 0.70 29.63 0.00 24.77 L 0.00 22.15 M 2.69 18.55 C 1.00 24.97 3.12 31.82 7.06 37.00 C 13.18 33.77 17.84 27.80 19.14 20.97 C 20.28 14.76 19.43 8.39 19.70 2.12 C 11.47 3.72 4.33 10.23 2.69 18.55 Z" />
<path fill="#5f85ac" opacity="0.85" d=" M 24.99 3.90 C 24.70 2.26 25.59 0.91 26.88 0.01 C 39.36 1.59 48.92 14.45 46.54 26.85 C 45.51 31.27 44.13 36.61 39.88 38.97 C 34.70 37.60 30.91 33.01 28.22 28.58 C 23.91 21.06 25.15 12.17 24.99 3.90 M 27.04 2.05 C 27.16 8.07 26.56 14.16 27.53 20.14 C 28.71 27.27 33.33 33.69 39.77 37.01 C 43.90 31.66 45.86 24.50 44.02 17.89 C 42.15 9.79 35.02 3.73 27.04 2.05 Z" />
<path fill="#5f85ac" opacity="0.85" d=" M 21.95 27.87 C 22.36 26.31 25.01 26.51 25.17 28.15 C 26.75 32.13 28.87 36.08 32.50 38.56 C 33.50 39.58 35.61 40.30 35.15 42.08 C 35.38 44.03 33.23 44.41 31.89 45.04 C 25.50 47.54 18.18 46.94 12.10 43.85 C 10.27 40.45 14.03 38.99 16.03 37.06 C 18.86 34.62 20.17 31.04 21.95 27.87 M 23.39 29.01 C 21.86 34.31 18.14 38.67 13.61 41.69 C 18.12 45.21 24.63 44.84 29.90 43.48 C 30.88 42.95 32.88 43.01 32.81 41.53 C 28.41 38.51 24.82 34.23 23.39 29.01 Z" />
</g>
</svg>
