<?xml version="1.0" encoding="UTF-8" ?>
<!DOCTYPE svg PUBLIC "-//W3C//DTD SVG 1.1//EN" "http://www.w3.org/Graphics/SVG/1.1/DTD/svg11.dtd">
<svg width="50pt" height="51pt" viewBox="0 0 50 51" version="1.1" xmlns="http://www.w3.org/2000/svg">
<g id="#5f85abd8">
<path fill="#5f85ab" opacity="0.85" d=" M 28.21 5.97 C 33.25 2.10 39.77 0.55 46.05 0.68 C 47.77 0.70 49.81 2.08 49.56 4.01 C 49.51 10.57 47.88 17.34 43.74 22.56 C 41.27 26.06 37.67 28.53 35.04 31.87 C 34.58 34.88 34.70 37.95 34.31 40.96 C 34.30 43.62 31.35 44.39 29.55 45.69 C 26.44 47.22 23.70 49.85 20.16 50.27 C 18.17 49.47 17.05 47.55 15.75 45.97 C 16.57 43.36 17.38 40.73 18.15 38.10 C 16.15 36.09 14.15 34.08 12.14 32.08 C 9.48 32.91 6.85 33.93 4.05 34.18 C 2.39 33.40 1.20 31.95 0.00 30.61 L 0.00 28.72 C 2.39 24.63 4.46 20.30 7.30 16.50 C 10.90 15.23 14.82 15.62 18.58 15.41 C 21.52 12.00 24.54 8.61 28.21 5.97 M 27.96 8.89 C 24.69 11.31 22.47 14.85 19.31 17.36 C 15.72 17.94 12.04 17.64 8.43 18.15 C 6.44 22.10 4.00 25.80 1.92 29.70 C 2.72 30.51 3.51 31.33 4.30 32.14 C 7.17 31.56 9.88 30.22 12.79 29.92 C 15.51 32.33 17.93 35.06 20.56 37.57 C 19.71 40.33 18.88 43.10 18.00 45.85 C 18.95 46.60 19.66 47.75 20.85 48.13 C 24.71 46.19 28.29 43.77 32.07 41.71 C 32.65 37.97 32.16 34.03 33.13 30.41 C 37.10 26.58 41.51 22.99 44.13 18.01 C 46.78 13.46 47.32 8.10 47.44 2.94 C 40.50 2.37 33.22 4.19 27.96 8.89 Z" />
<path fill="#5f85ab" opacity="0.85" d=" M 35.96 9.96 C 37.67 8.71 40.82 8.32 41.21 11.07 C 42.02 14.20 37.72 15.28 35.92 13.16 C 35.93 12.36 35.95 10.76 35.96 9.96 M 38.16 10.93 C 36.72 13.90 41.47 10.98 38.16 10.93 Z" />
</g>
</svg>
