<?xml version="1.0" encoding="UTF-8" ?>
<!DOCTYPE svg PUBLIC "-//W3C//DTD SVG 1.1//EN" "http://www.w3.org/Graphics/SVG/1.1/DTD/svg11.dtd">
<svg width="62pt" height="44pt" viewBox="0 0 62 44" version="1.1" xmlns="http://www.w3.org/2000/svg">
<g id="#6994bef0">
<path fill="#6994be" opacity="0.94" d=" M 10.69 6.85 C 16.58 5.09 22.40 3.10 28.29 1.34 C 31.42 0.08 34.58 1.67 37.57 2.54 C 45.35 5.20 53.32 7.31 61.03 10.15 C 61.27 10.94 61.75 12.51 61.99 13.30 C 57.93 16.30 52.80 16.96 48.15 18.63 C 48.50 22.30 49.28 26.01 48.78 29.69 C 47.54 33.47 43.32 34.91 39.81 35.78 C 31.25 37.72 21.62 37.17 14.13 32.21 C 14.58 35.06 15.27 37.92 15.15 40.83 C 15.10 42.39 13.23 43.16 11.89 43.26 C 9.60 43.35 6.67 43.79 5.11 41.67 C 4.67 37.57 6.42 33.51 5.52 29.42 C 4.28 25.05 7.28 21.12 7.86 16.87 C 5.20 16.00 2.57 15.06 0.00 13.97 L 0.00 11.09 C 3.18 8.84 7.06 8.05 10.69 6.85 M 1.48 12.24 C 4.39 13.75 7.56 14.62 10.68 15.55 C 9.54 19.34 8.08 23.14 7.20 26.94 C 8.84 31.61 7.20 36.42 6.91 41.16 C 9.04 41.20 11.17 41.20 13.29 41.16 C 13.00 36.42 11.29 31.62 12.84 26.93 C 11.85 23.42 11.70 19.79 13.94 16.67 C 19.42 18.09 24.70 20.19 30.17 21.65 C 31.47 22.03 32.75 21.28 34.00 21.01 C 42.66 18.20 51.39 15.59 60.03 12.73 C 58.43 10.63 55.55 10.53 53.26 9.62 C 45.80 7.50 38.51 4.71 31.00 2.81 C 21.09 5.65 11.12 8.57 1.48 12.24 M 15.34 20.47 C 15.22 22.98 14.94 25.49 15.01 28.01 C 14.77 31.08 18.27 32.41 20.65 33.27 C 28.24 35.41 36.82 35.49 44.05 32.08 C 48.71 30.04 46.39 24.35 46.34 20.50 C 41.79 21.86 37.33 23.50 32.76 24.78 C 30.58 25.47 28.37 24.57 26.29 23.95 C 22.66 22.74 19.00 21.60 15.34 20.47 Z" />
</g>
</svg>
