<?xml version="1.0" encoding="UTF-8" ?>
<!DOCTYPE svg PUBLIC "-//W3C//DTD SVG 1.1//EN" "http://www.w3.org/Graphics/SVG/1.1/DTD/svg11.dtd">
<svg width="31pt" height="55pt" viewBox="0 0 31 55" version="1.1" xmlns="http://www.w3.org/2000/svg">
<g id="#5e84aad7">
<path fill="#5e84aa" opacity="0.84" d=" M 10.81 6.46 C 11.07 4.50 10.63 2.18 12.17 0.65 C 14.75 -0.34 17.54 0.13 20.10 0.90 C 20.32 2.65 20.51 4.41 20.67 6.16 C 23.92 7.33 27.98 8.52 29.27 12.13 C 28.82 14.67 27.40 16.98 25.70 18.88 C 23.59 20.06 21.62 18.09 19.78 17.29 C 17.48 15.89 13.73 15.62 12.01 18.03 C 11.52 19.46 13.34 19.92 14.19 20.55 C 18.44 22.66 23.32 23.79 26.85 27.16 C 31.56 31.41 31.25 39.50 26.90 43.89 C 25.15 45.83 22.82 47.07 20.59 48.36 C 20.51 49.84 20.62 51.35 20.21 52.79 C 18.12 54.84 14.81 54.66 12.25 53.73 C 10.32 52.58 11.20 50.06 10.92 48.22 C 6.79 46.71 0.87 45.20 0.17 40.09 C 1.42 37.72 3.26 35.74 4.97 33.71 C 8.98 35.11 12.45 38.79 17.01 37.93 C 18.76 37.63 20.02 34.95 17.97 34.13 C 12.42 30.80 4.69 29.83 1.68 23.31 C -1.64 16.29 3.62 8.07 10.81 6.46 M 13.13 2.27 C 13.05 4.18 13.02 6.09 12.99 8.00 C 10.41 8.87 7.67 9.71 5.75 11.76 C 2.25 15.05 1.74 21.21 5.21 24.70 C 9.52 29.50 16.77 29.50 21.26 34.07 C 21.08 36.20 20.82 38.78 18.50 39.67 C 13.89 41.32 9.29 38.65 5.64 36.03 C 4.42 37.68 3.21 39.33 2.00 40.99 C 5.04 43.88 8.89 45.65 13.00 46.35 C 13.00 48.25 13.02 50.14 13.04 52.03 C 14.82 52.06 16.59 52.05 18.37 52.00 C 18.39 50.14 18.40 48.27 18.44 46.40 C 24.97 45.22 30.22 38.07 27.42 31.57 C 24.03 24.68 15.00 25.06 9.95 20.05 C 9.95 19.27 9.93 17.72 9.93 16.94 C 11.35 15.65 12.86 14.18 14.92 14.16 C 18.51 13.54 21.56 15.86 24.60 17.34 C 25.49 15.61 26.50 13.92 27.15 12.07 C 24.87 9.61 21.53 8.70 18.42 7.80 C 18.38 6.10 18.45 4.38 18.21 2.69 C 16.72 1.94 14.78 2.46 13.13 2.27 Z" />
</g>
</svg>
