<?xml version="1.0" encoding="UTF-8" ?>
<!DOCTYPE svg PUBLIC "-//W3C//DTD SVG 1.1//EN" "http://www.w3.org/Graphics/SVG/1.1/DTD/svg11.dtd">
<svg width="16pt" height="16pt" viewBox="0 0 16 16" version="1.1" xmlns="http://www.w3.org/2000/svg">
<g id="#709dcaff">
<path fill="#709dca" opacity="1.00" d=" M 0.99 1.11 C 2.69 -0.43 5.27 2.07 3.76 3.84 C 1.99 5.85 -1.11 2.88 0.99 1.11 Z" />
<path fill="#709dca" opacity="1.00" d=" M 5.54 5.59 C 8.30 6.20 11.34 4.78 13.91 6.02 C 16.51 8.64 15.16 12.71 15.45 16.00 L 12.00 16.00 C 11.65 13.43 12.96 10.06 10.93 8.10 C 7.36 8.74 9.40 13.41 8.86 16.00 L 5.54 16.00 C 5.53 12.53 5.54 9.06 5.54 5.59 Z" />
<path fill="#709dca" opacity="1.00" d=" M 0.54 5.57 C 1.40 5.60 3.13 5.65 3.99 5.67 C 4.00 9.11 4.01 12.56 4.00 16.00 L 0.54 16.00 C 0.53 12.52 0.53 9.05 0.54 5.57 Z" />
</g>
</svg>
