<?xml version="1.0" encoding="UTF-8" ?>
<!DOCTYPE svg PUBLIC "-//W3C//DTD SVG 1.1//EN" "http://www.w3.org/Graphics/SVG/1.1/DTD/svg11.dtd">
<svg width="50pt" height="48pt" viewBox="0 0 50 48" version="1.1" xmlns="http://www.w3.org/2000/svg">
<g id="#1ca8ddff">
<path fill="#1ca8dd" opacity="1.00" d=" M 11.34 0.00 L 11.77 0.00 C 12.13 1.24 12.81 2.42 12.83 3.74 C 9.11 7.19 5.19 10.95 4.03 16.10 C 1.00 25.89 6.01 37.29 15.24 41.70 C 23.20 45.92 33.60 44.30 40.04 38.07 C 44.47 34.02 46.78 28.12 47.03 22.19 C 47.77 22.18 49.26 22.16 50.00 22.15 L 50.00 23.70 C 49.60 31.16 45.60 38.25 39.51 42.55 C 36.37 44.93 32.49 45.89 28.90 47.35 C 15.09 49.23 1.06 38.27 0.00 24.23 L 0.00 20.68 C 0.57 14.42 3.21 8.22 7.99 4.02 C 9.18 2.77 10.92 1.79 11.34 0.00 Z" />
</g>
<g id="#9aca40ff">
<path fill="#9aca40" opacity="1.00" d=" M 11.65 35.26 C 6.01 29.66 4.58 20.36 8.50 13.39 C 9.17 13.80 10.50 14.61 11.16 15.01 C 6.22 23.81 12.19 35.90 22.08 37.51 C 31.34 39.60 40.85 31.64 40.74 22.20 C 41.81 22.22 42.88 22.24 43.95 22.27 C 43.61 28.80 40.19 35.24 34.35 38.41 C 27.22 42.71 17.37 41.29 11.65 35.26 Z" />
</g>
<g id="#f6772cff">
<path fill="#f6772c" opacity="1.00" d=" M 12.18 22.47 C 13.27 22.27 14.37 22.15 15.47 22.10 C 15.81 27.03 19.78 31.59 24.92 31.54 C 30.12 31.73 34.29 27.19 34.60 22.17 C 35.36 22.17 36.87 22.17 37.63 22.17 C 37.68 29.54 30.47 35.87 23.16 34.51 C 17.10 33.77 12.98 28.23 12.18 22.47 Z" />
</g>
</svg>
