<?xml version="1.0" encoding="UTF-8" ?>
<!DOCTYPE svg PUBLIC "-//W3C//DTD SVG 1.1//EN" "http://www.w3.org/Graphics/SVG/1.1/DTD/svg11.dtd">
<svg width="82pt" height="61pt" viewBox="0 0 82 61" version="1.1" xmlns="http://www.w3.org/2000/svg">
<g id="#709cc9fe">
<path fill="#709cc9" opacity="1.00" d=" M 24.17 2.23 C 32.85 -1.63 43.73 1.02 49.85 8.23 C 50.68 9.57 52.92 10.80 51.83 12.62 C 56.58 9.98 62.95 10.00 66.90 14.08 C 70.75 17.32 71.42 22.77 70.19 27.41 C 76.78 30.04 81.10 36.73 81.33 43.77 C 81.50 43.64 81.83 43.38 82.00 43.25 L 82.00 43.69 C 81.73 43.99 81.20 44.59 80.94 44.90 C 80.79 53.45 73.09 60.49 64.74 61.00 L 18.49 61.00 C 8.89 60.33 0.70 52.16 0.00 42.56 L 0.00 39.41 C 0.56 32.84 4.52 26.90 10.16 23.58 C 10.13 14.52 15.67 5.61 24.17 2.23 M 17.94 8.92 C 13.82 13.00 12.05 18.93 12.21 24.63 C 9.68 26.22 7.16 27.99 5.44 30.49 C 1.13 36.11 0.85 44.38 4.62 50.35 C 7.82 55.60 13.77 59.09 19.97 59.00 C 34.65 58.99 49.34 59.02 64.02 58.98 C 72.71 59.04 80.21 50.70 79.07 42.06 C 78.56 35.57 73.48 30.10 67.28 28.46 C 69.43 24.80 69.44 19.66 66.45 16.45 C 63.01 12.00 56.22 11.64 51.91 15.04 C 49.96 10.95 47.00 7.27 42.94 5.12 C 35.07 0.44 24.05 2.06 17.94 8.92 Z" />
<path fill="#709cc9" opacity="1.00" d=" M 24.48 29.60 C 29.02 25.19 33.35 20.56 38.00 16.26 C 42.67 20.49 46.84 25.23 51.52 29.45 C 52.55 30.40 53.93 31.60 53.20 33.21 C 49.89 33.27 46.58 33.28 43.27 33.26 C 43.01 38.40 43.81 43.63 42.78 48.70 C 39.59 48.75 36.41 48.75 33.22 48.70 C 32.19 43.63 32.98 38.40 32.73 33.26 C 29.45 33.28 26.17 33.26 22.89 33.23 C 21.73 31.61 23.71 30.67 24.48 29.60 M 25.11 31.50 C 28.14 31.10 31.21 31.09 34.20 31.77 C 35.22 36.66 34.64 41.70 34.61 46.65 C 36.85 46.74 39.09 46.76 41.33 46.71 C 41.42 41.74 40.75 36.68 41.79 31.78 C 44.78 31.09 47.87 31.10 50.89 31.51 C 46.37 27.53 42.34 23.04 38.00 18.87 C 33.66 23.04 29.63 27.53 25.11 31.50 Z" />
</g>
</svg>
