<?xml version="1.0" encoding="UTF-8" ?>
<!DOCTYPE svg PUBLIC "-//W3C//DTD SVG 1.1//EN" "http://www.w3.org/Graphics/SVG/1.1/DTD/svg11.dtd">
<svg width="51pt" height="66pt" viewBox="0 0 51 66" version="1.1" xmlns="http://www.w3.org/2000/svg">
<g id="#709dc9fe">
<path fill="#709dc9" opacity="1.00" d=" M 6.51 13.37 C 9.62 4.50 19.63 -1.40 28.89 0.68 C 36.31 2.09 42.55 8.06 44.32 15.38 C 45.05 18.21 45.79 21.99 43.09 24.04 C 40.82 25.15 38.00 24.95 35.61 24.26 C 32.13 22.05 33.99 16.79 30.75 14.31 C 26.73 9.87 18.65 12.22 17.30 17.93 C 16.66 22.34 17.12 26.82 17.01 31.26 C 26.29 31.34 35.59 31.12 44.87 31.35 C 48.15 31.40 50.27 34.76 50.19 37.80 C 50.31 45.16 50.40 52.55 50.15 59.91 C 50.26 63.04 47.73 65.59 44.73 66.00 L 5.12 66.00 C 2.08 65.33 0.08 62.60 0.00 59.54 L 0.00 37.36 C 0.25 34.30 2.23 31.78 5.28 31.14 C 5.48 25.22 4.49 19.08 6.51 13.37 M 7.48 17.59 C 6.99 22.74 7.40 27.92 7.26 33.09 C 5.74 33.37 3.80 33.25 2.88 34.77 C 1.65 37.00 2.07 39.64 1.98 42.07 C 2.12 48.08 1.81 54.09 2.12 60.09 C 2.07 62.20 3.89 64.05 6.00 63.98 C 18.71 64.02 31.42 64.01 44.14 63.98 C 46.37 64.13 48.29 62.13 48.16 59.91 C 48.41 52.90 48.21 45.86 48.26 38.84 C 48.38 36.61 47.61 33.45 44.90 33.33 C 34.94 33.16 24.97 33.32 15.00 33.26 C 15.23 27.89 14.46 22.42 15.47 17.11 C 17.41 9.87 27.90 7.45 32.61 13.41 C 35.52 15.68 34.29 19.94 36.42 22.52 C 38.61 22.74 42.12 23.68 42.97 20.84 C 43.43 11.91 36.27 3.45 27.38 2.42 C 18.06 1.01 8.62 8.26 7.48 17.59 Z" />
</g>
</svg>
