<?xml version="1.0" encoding="UTF-8" ?>
<!DOCTYPE svg PUBLIC "-//W3C//DTD SVG 1.1//EN" "http://www.w3.org/Graphics/SVG/1.1/DTD/svg11.dtd">
<svg width="69pt" height="67pt" viewBox="0 0 69 67" version="1.1" xmlns="http://www.w3.org/2000/svg">
<g id="#709dcaff">
<path fill="#709dca" opacity="1.00" d=" M 37.92 2.94 C 40.82 -1.29 47.33 0.46 50.41 3.60 C 54.47 8.50 53.28 15.57 51.02 21.01 C 56.01 21.17 62.18 19.85 65.86 24.17 C 69.37 27.67 68.91 33.10 66.66 37.16 C 67.63 40.89 65.49 44.32 65.39 48.01 C 65.31 51.41 63.00 54.19 62.68 57.55 C 62.14 61.71 58.63 65.12 54.51 65.74 C 45.97 67.26 37.24 65.41 29.22 62.43 C 26.26 61.17 22.55 61.41 20.27 58.88 C 19.33 59.72 18.45 60.88 17.05 60.86 C 12.66 61.12 8.24 61.13 3.86 60.85 C 1.70 60.73 0.33 58.67 0.00 56.71 L 0.00 30.05 C 0.58 27.74 2.49 25.90 5.01 26.28 C 10.14 26.65 15.81 25.03 20.47 27.81 C 26.02 25.47 28.92 20.04 32.78 15.78 C 36.26 12.34 35.32 6.85 37.92 2.94 M 34.62 16.62 C 31.58 19.92 29.20 23.79 25.94 26.87 C 24.41 28.19 21.25 28.42 21.54 31.06 C 21.56 39.70 21.43 48.36 21.61 56.99 C 22.45 59.69 25.99 58.92 28.09 60.00 C 36.80 63.20 46.37 65.70 55.62 63.42 C 59.65 62.19 61.17 57.79 61.20 53.96 C 62.87 51.36 63.94 48.43 63.38 45.29 C 64.75 42.67 65.45 39.69 64.47 36.80 C 67.56 32.76 67.17 26.01 62.13 23.78 C 57.51 22.12 52.42 23.41 47.62 22.98 C 50.45 18.17 52.35 12.25 50.18 6.81 C 48.74 3.19 44.53 2.27 41.03 2.43 C 36.67 6.06 38.64 12.79 34.62 16.62 M 3.31 28.40 C 2.17 29.20 1.86 30.62 1.99 31.93 C 2.03 39.99 1.97 48.05 2.01 56.10 C 1.79 57.70 3.32 59.22 4.91 58.99 C 8.65 59.02 12.38 59.03 16.11 58.99 C 17.70 59.24 19.11 57.64 18.99 56.12 C 19.04 48.05 18.97 39.98 19.01 31.91 C 19.16 30.48 18.71 28.32 16.90 28.34 C 12.37 28.22 7.82 28.14 3.31 28.40 Z" />
<path fill="#709dca" opacity="1.00" d=" M 7.25 51.11 C 7.01 49.38 8.96 49.09 10.04 48.35 C 11.18 49.31 13.27 50.24 12.46 52.14 C 11.66 54.83 6.65 54.14 7.25 51.11 M 8.91 50.64 C 8.62 51.99 9.18 52.48 10.57 52.10 C 10.86 50.74 10.31 50.26 8.91 50.64 Z" />
</g>
</svg>
